<svg xmlns="http://www.w3.org/2000/svg" viewBox="0 0 16 16">
  <defs id="defs3051">
    <style type="text/css" id="current-color-scheme">
      .ColorScheme-Text {
        color:#4d4d4d;
      }
      </style>
  </defs>
 <path style="fill:currentColor;fill-opacity:1;stroke:none" 
     d="M 6.5 2 C 4.007 2 2 4.01 2 6.5 C 2 8.993 4.01 11 6.5 11 C 7.5636432 11 8.5263409 10.618801 9.2949219 10.005859 L 13.292969 14.003906 L 14 13.296875 L 10.001953 9.2988281 C 10.617604 8.529048 11 7.565338 11 6.5 C 11 4.007 8.99 2 6.5 2 z M 6.5 3 C 8.439 3 10 4.561 10 6.5 C 10 8.439 8.439 10 6.5 10 C 4.561 10 3 8.439 3 6.5 C 3 4.561 4.561 3 6.5 3 z "
     class="ColorScheme-Text"
     />
</svg>
