<!-- Created with Inkscape (http://www.inkscape.org/) -->
<svg xmlns:rdf="http://www.w3.org/1999/02/22-rdf-syntax-ns#" xmlns="http://www.w3.org/2000/svg" height="48" width="48" version="1.1" xmlns:cc="http://creativecommons.org/ns#" xmlns:dc="http://purl.org/dc/elements/1.1/">
 <metadata>
  <rdf:RDF>
   <cc:Work rdf:about="">
    <dc:format>image/svg+xml</dc:format>
    <dc:type rdf:resource="http://purl.org/dc/dcmitype/StillImage"/>
    <dc:title/>
   </cc:Work>
  </rdf:RDF>
 </metadata>
 <g transform="translate(0,-1004.3622)">
  <rect style="color:#000000;enable-background:accumulate;" fill-rule="nonzero" rx="7.668" ry="7.782" height="46.39" width="47.3" y="1005" x="0.4211" fill="#fb8b00"/>
  <path style="color:#000000;enable-background:accumulate;" fill="#f44800" d="m7.04,1005c-3.777,0.4901-6.67,3.732-6.67,7.702v30.81c0,3.97,2.893,7.212,6.67,7.702v-46.21z" fill-rule="nonzero"/>
  <path stroke-linejoin="miter" d="m7.681,1005,0,46.3" stroke="#f47300" stroke-linecap="butt" stroke-width="1.26146221px" fill="#f44800"/>
  <g font-size="24px" font-family="&apos;微软雅黑&apos;" transform="matrix(1.5050846,0,0,1.5050846,-14.31624,-521.34221)" font-stretch="normal" font-variant="normal" font-weight="normal" font-style="normal">
   <g style="word-spacing:0px;letter-spacing:0px;" fill="#f44800" transform="matrix(1.2704576,0,0,1.2704576,-81.976848,-282.46053)" line-height="125%">
    <path d="m86.35,1033c0.072,0.126,0.162,0.27,0.234,0.378,0.288,0.504,0.36,0.72,0.36,1.134,0,0.954-0.558,1.422-1.746,1.422-0.684,0-1.404-0.036-2.574-0.144-1.512-0.144-1.872-0.162-2.412-0.162h-0.648l-0.576,0.09,1.458-1.512,2.592-2.646,4.644-4.698v-0.522c-0.63,0.54-1.134,0.738-1.8,0.738-0.252,0-0.756-0.036-1.44-0.108-1.746-0.162-1.746-0.162-2.214-0.216-0.9-0.09-0.9-0.09-1.044-0.09-0.396,0-0.504,0.09-0.792,0.684l-1.188,2.592,0.306,0.45c1.26-2.214,1.35-2.34,1.908-2.34,0.126,0,0.306,0.018,0.486,0.036,0.72,0.09,1.206,0.126,1.836,0.126,0.846,0,1.206-0.036,2.088-0.18l-6.102,6.102c-1.386,1.35-2.286,2.232-2.718,2.61v0.666c0.594-0.432,1.008-0.576,1.674-0.576,0.468,0,1.098,0.036,1.782,0.108,2.196,0.234,3.942,0.378,4.374,0.378,0.504,0,0.936-0.162,1.278-0.486,0.216-0.216,0.378-0.396,0.882-1.044l0.414-0.522c0.54-0.648,0.648-0.918,0.648-1.53,0-0.504-0.09-0.918-0.36-1.548l-1.35,0.81"/>
    <path d="m93.87,1034c-1.35,1.17-2.214,1.674-2.898,1.674-0.45,0-0.828-0.306-0.954-0.774-0.072-0.288-0.09-0.486-0.09-1.008,0.81-0.504,1.35-0.882,2.412-1.674,0.972-0.738,1.35-1.332,1.35-2.142,0-0.63-0.396-1.008-1.026-1.008-0.396,0-0.684,0.09-1.098,0.324-0.684,0.396-1.296,0.882-1.674,1.314-0.684,0.828-1.296,2.808-1.296,4.266,0,1.062,0.558,1.728,1.476,1.728,1.062,0,2.376-0.756,3.798-2.178m-3.888-0.756c0.306-1.926,1.134-3.42,1.908-3.42,0.306,0,0.504,0.306,0.504,0.738,0,0.9-0.486,1.44-2.412,2.682"/>
   </g>
   <g style="word-spacing:0px;letter-spacing:0px;" fill="#6a200b" transform="matrix(1.2704576,0,0,1.2704576,-82.035512,-282.09347)" line-height="125%">
    <path d="m86.35,1033c0.072,0.126,0.162,0.27,0.234,0.378,0.288,0.504,0.36,0.72,0.36,1.134,0,0.954-0.558,1.422-1.746,1.422-0.684,0-1.404-0.036-2.574-0.144-1.512-0.144-1.872-0.162-2.412-0.162h-0.648l-0.576,0.09,1.458-1.512,2.592-2.646,4.644-4.698v-0.522c-0.63,0.54-1.134,0.738-1.8,0.738-0.252,0-0.756-0.036-1.44-0.108-1.746-0.162-1.746-0.162-2.214-0.216-0.9-0.09-0.9-0.09-1.044-0.09-0.396,0-0.504,0.09-0.792,0.684l-1.188,2.592,0.306,0.45c1.26-2.214,1.35-2.34,1.908-2.34,0.126,0,0.306,0.018,0.486,0.036,0.72,0.09,1.206,0.126,1.836,0.126,0.846,0,1.206-0.036,2.088-0.18l-6.102,6.102c-1.386,1.35-2.286,2.232-2.718,2.61v0.666c0.594-0.432,1.008-0.576,1.674-0.576,0.468,0,1.098,0.036,1.782,0.108,2.196,0.234,3.942,0.378,4.374,0.378,0.504,0,0.936-0.162,1.278-0.486,0.216-0.216,0.378-0.396,0.882-1.044l0.414-0.522c0.54-0.648,0.648-0.918,0.648-1.53,0-0.504-0.09-0.918-0.36-1.548l-1.35,0.81"/>
    <path d="m93.87,1034c-1.35,1.17-2.214,1.674-2.898,1.674-0.45,0-0.828-0.306-0.954-0.774-0.072-0.288-0.09-0.486-0.09-1.008,0.81-0.504,1.35-0.882,2.412-1.674,0.972-0.738,1.35-1.332,1.35-2.142,0-0.63-0.396-1.008-1.026-1.008-0.396,0-0.684,0.09-1.098,0.324-0.684,0.396-1.296,0.882-1.674,1.314-0.684,0.828-1.296,2.808-1.296,4.266,0,1.062,0.558,1.728,1.476,1.728,1.062,0,2.376-0.756,3.798-2.178m-3.888-0.756c0.306-1.926,1.134-3.42,1.908-3.42,0.306,0,0.504,0.306,0.504,0.738,0,0.9-0.486,1.44-2.412,2.682"/>
   </g>
  </g>
  <g fill="none" stroke="#FFF" transform="matrix(0.43945568,0,0,0.43945568,58.232101,597.95125)">
   <path style="enable-background:accumulate;color:#000000;" d="m-72.53,15.47c0,2.651-2.149,4.8-4.8,4.8s-4.8-2.149-4.8-4.8,2.149-4.8,4.8-4.8,4.8,2.149,4.8,4.8z" transform="translate(0,1004.3622)" stroke-width="0.30000001"/>
   <path stroke-linejoin="miter" d="m-73.99,1023c5.543,5.266,5.543,5.266,5.543,5.266" stroke-linecap="butt" stroke-miterlimit="4" stroke-dasharray="none" stroke-width="0.23384789"/>
  </g>
 </g>
</svg>
